Coordinates
version=1
nRows=7
nColumns=40
inDegrees=yes

Units are S.I. units (second, meters, Newtons, ...)
Angles are in degrees.

endheader
time	pelvis_tilt	pelvis_list	pelvis_rotation	pelvis_tx	pelvis_ty	pelvis_tz	hip_flexion_r	hip_adduction_r	hip_rotation_r	knee_angle_r	knee_angle_r_beta	ankle_angle_r	subtalar_angle_r	mtp_angle_r	hip_flexion_l	hip_adduction_l	hip_rotation_l	knee_angle_l	knee_angle_l_beta	ankle_angle_l	subtalar_angle_l	mtp_angle_l	lumbar_extension	lumbar_bending	lumbar_rotation	arm_flex_r	arm_add_r	arm_rot_r	elbow_flex_r	pro_sup_r	wrist_flex_r	wrist_dev_r	arm_flex_l	arm_add_l	arm_rot_l	elbow_flex_l	pro_sup_l	wrist_flex_l	wrist_dev_l
     45.41000000	     -4.29472169	     -4.07918686	      5.01823182	      1.07538318	      0.92416454	      0.43128947	      2.15955415	     -1.98724963	    -15.81566695	     23.92087186	     23.92087186	     16.07253273	     -3.51759379	     -6.10070738	     24.90135332	     -5.22354458	     -1.29086749	     24.93918039	     24.93918039	      7.13364047	    -13.72719436	      1.50670344	     -8.22200581	      3.32418179	      3.90680788	     24.47702570	    -17.55487433	     -5.76830859	     68.51529100	     45.57506945	      0.00000000	      0.00000000	      2.35402655	     -9.71587444	     -4.50372496	     28.97556763	     45.26349741	      0.00000000	      0.00000000
     45.42371429	     -4.17333421	     -3.96596089	      4.80021676	      1.07630304	      0.92515499	      0.42804178	      3.04108354	     -2.74502361	    -15.32763274	     26.54040052	     26.54040052	     15.24405979	     -4.46448773	     -7.29392744	     24.15163300	     -5.01308514	     -1.59407585	     24.79539732	     24.79539732	      7.59940003	    -13.63558349	      1.53571071	     -8.14488570	      3.23058032	      3.86078145	     22.63018600	    -17.38800628	     -4.95662828	     66.36834226	     45.60709075	      0.00000000	      0.00000000	      3.51240568	     -9.93541165	     -4.54496582	     29.27242916	     45.29939557	      0.00000000	      0.00000000
     45.43742857	     -4.10366890	     -3.86227080	      4.56607024	      1.07703731	      0.92598303	      0.42482123	      4.19204321	     -3.52804470	    -14.77171747	     29.46236394	     29.46236394	     14.06595520	     -5.66743113	     -8.91262820	     23.44341505	     -4.80772375	     -1.94809915	     24.60296481	     24.60296481	      8.02580065	    -13.53568639	      1.49660304	     -8.03714137	      3.16338610	      3.82583742	     20.80755716	    -17.20172373	     -4.13977669	     63.94012051	     45.64756588	      0.00000000	      0.00000000	      4.66574882	    -10.14864541	     -4.61918770	     29.74008971	     45.34054740	      0.00000000	      0.00000000
     45.45114286	     -3.96383682	     -3.78793199	      4.31937679	      1.07766019	      0.92684609	      0.42173285	      5.26174580	     -4.17178497	    -13.94828831	     32.06061363	     32.06061363	     10.89844004	     -8.31911137	    -14.93690340	     22.65477509	     -4.64508378	     -2.27812136	     24.38646537	     24.38646537	      8.44545556	    -13.37625122	      1.37144696	     -7.98680671	      3.09761034	      3.01502373	     20.47736276	    -16.45910676	     -2.28967801	     58.67349225	     45.73585188	      0.00000000	      0.00000000	      5.27898008	    -10.56199762	     -4.96481350	     30.53020149	     45.45200055	      0.00000000	      0.00000000
     45.46485714	     -3.87871031	     -3.60663596	      4.04836062	      1.07802851	      0.92741203	      0.41860896	      6.86250649	     -5.14395385	    -13.32971518	     35.70296855	     35.70296855	      9.56388910	     -9.28214725	    -15.65901060	     21.93570818	     -4.36604101	     -2.69463361	     24.17553699	     24.17553699	      8.83235362	    -13.24081159	      1.17378504	     -8.03413761	      2.95871732	      2.98735307	     18.32618217	    -16.22449252	     -1.91241319	     57.34556437	     45.75307249	      0.00000000	      0.00000000	      6.36930385	    -10.85730213	     -5.14614248	     31.40151768	     45.50145372	      0.00000000	      0.00000000
     45.47857143	     -3.77544488	     -3.44600005	      3.77681865	      1.07821904	      0.92786078	      0.41560850	      8.59215499	     -6.02214397	    -12.52841483	     39.44875072	     39.44875072	      7.85897835	    -10.54432737	    -16.28648167	     21.24572559	     -4.11725385	     -3.10424405	     24.01931543	     24.01931543	      9.15445024	    -13.11407590	      0.95442489	     -8.11518866	      2.86095038	      3.06305547	     16.23600538	    -16.01265001	     -1.58337857	     55.63659623	     45.78602904	      0.00000000	      0.00000000	      7.55161755	    -11.12024052	     -5.31746631	     32.41103895	     45.54938469	      0.00000000	      0.00000000
     45.49228571	     -3.69859728	     -3.47831785	      3.48729811	      1.07821501	      0.92817664	      0.41291812	     10.42982484	     -6.49729014	    -11.44995658	     43.04954828	     43.04954828	      5.47389088	    -12.59679610	    -17.34555543	     20.67109526	     -4.09541454	     -3.44133871	     23.95095090	     23.95095090	      9.44574007	    -12.99545528	      0.49364350	     -8.14564043	      2.95859558	      3.33768476	     14.46342841	    -15.78787845	     -1.39982055	     52.37804058	     45.87574016	      0.00000000	      0.00000000	      8.59820220	    -11.29325534	     -5.58389974	     34.20166327	     45.61709172	      0.00000000	      0.00000000
